#include <msp430.h>
#include "led.h"
#include "buzzer.h"
#include "pitches.h"

static int melody[] = {
  NOTE_C4, NOTE_C5, NOTE_A3, NOTE_A4, 
  NOTE_AS3, NOTE_AS4, 0,
  0,
  NOTE_C4, NOTE_C5, NOTE_A3, NOTE_A4, 
  NOTE_AS3, NOTE_AS4, 0,
  0,
  NOTE_F3, NOTE_F4, NOTE_D3, NOTE_D4,
  NOTE_DS3, NOTE_DS4, 0,
  0,
  NOTE_F3, NOTE_F4, NOTE_D3, NOTE_D4,
  NOTE_DS3, NOTE_DS4, 0,
  0, NOTE_DS4, NOTE_CS4, NOTE_D4,
  NOTE_CS4, NOTE_DS4, 
  NOTE_DS4, NOTE_GS3,
  NOTE_G3, NOTE_CS4,
  NOTE_C4, NOTE_FS4,NOTE_F4, NOTE_E3, NOTE_AS4, NOTE_A4,
  NOTE_GS4, NOTE_DS4, NOTE_B3,
  NOTE_AS3, NOTE_A3, NOTE_GS3,
  0, 0, 0, -1
};

static int tempo[] = {
  12, 12, 12, 12, 
  12, 12, 6,
  3,
  12, 12, 12, 12, 
  12, 12, 6,
  3,
  12, 12, 12, 12, 
  12, 12, 6,
  3,
  12, 12, 12, 12, 
  12, 12, 6,
  6, 18, 18, 18,
  6, 6,
  6, 6,
  6, 6,
  18, 18, 18,18, 18, 18,
  10, 10, 10,
  10, 10, 10,
  3, 3, 3
  };

/*
static int melody[] = {
  NOTE_E7, NOTE_E7, 0, NOTE_E7, 
  0, NOTE_C7, NOTE_E7, 0,
  NOTE_G7, 0, 0,  0,
  NOTE_G6, 0, 0, 0, 

  NOTE_C7, 0, 0, NOTE_G6, 
  0, 0, NOTE_E6, 0, 
  0, NOTE_A6, 0, NOTE_B6, 
  0, NOTE_AS6, NOTE_A6, 0, 

  NOTE_G6, NOTE_E7, NOTE_G7, 
  NOTE_A7, 0, NOTE_F7, NOTE_G7, 
  0, NOTE_E7, 0,NOTE_C7, 
  NOTE_D7, NOTE_B6, 0, 0,

  NOTE_C7, 0, 0, NOTE_G6, 
  0, 0, NOTE_E6, 0, 
  0, NOTE_A6, 0, NOTE_B6, 
  0, NOTE_AS6, NOTE_A6, 0, 

  NOTE_G6, NOTE_E7, NOTE_G7, 
  NOTE_A7, 0, NOTE_F7, NOTE_G7, 
  0, NOTE_E7, 0,NOTE_C7, 
  NOTE_D7, NOTE_B6, 0, 0, -1
};
int tempo[] = {
  12, 12, 12, 12, 
  12, 12, 12, 12,
  12, 12, 12, 12,
  12, 12, 12, 12, 

  12, 12, 12, 12,
  12, 12, 12, 12, 
  12, 12, 12, 12, 
  12, 12, 12, 12, 

  9, 9, 9,
  12, 12, 12, 12,
  12, 12, 12, 12,
  12, 12, 12, 12,

  12, 12, 12, 12,
  12, 12, 12, 12,
  12, 12, 12, 12,
  12, 12, 12, 12,

  9, 9, 9,
  12, 12, 12, 12,
  12, 12, 12, 12,
  12, 12, 12, 12, 0
  };*/

// Default: 650
static unsigned short quarter_duration = 250;
static unsigned short current_note = 0;
static unsigned short duration = 0;

char buzzer_state = 0;
void buzzer_init()
{
    /* 
       Direct timer A output "TA0.1" to P2.6.  
        According to table 21 from data sheet:
          P2SEL2.6, P2SEL2.7, anmd P2SEL.7 must be zero
          P2SEL.6 must be 1
        Also: P2.6 direction must be output
    */
    timerAUpmode();		/* used to drive speaker */
    P2SEL2 &= ~(BIT6 | BIT7);
    P2SEL &= ~BIT7; 
    P2SEL |= BIT6;
    P2DIR |= BIT6;		/* enable output to speaker (P2.6) */

    duration = (int)(quarter_duration / tempo[0]);
    buzzer_state = STATE_BUZZER_READY;
    current_note = 0;
}

void buzzer_play(){
  // Set the state to playing
  buzzer_state = STATE_BUZZER_PLAYING;

  // Get the current note from the song
  int note = melody[current_note];
  
  // Check if the song has ended
  if(note < 0){
    buzzer_state = STATE_BUZZER_READY;
    current_note = 0;
    return;
  }

  // Turn on the red led when not playing
  if(note == 0){
    led_set(1, 0);
  }
  // Turn on the green led when playing
  else{
    led_set(0, 1);
  }

  // Play the current note
  buzzer_set_period(note);
  // Update the note duration
  duration--;

  // We finished playing the note
  if(duration <= 1){
    // Go to the next note
    current_note++;
    // Update the note duration
    duration = (int)(quarter_duration / tempo[current_note]);
  }  
  
}

void buzzer_set_period(short cycles)
{ 
  CCR0 = cycles; 
  CCR1 = cycles >> 1;		/* one half cycle */
}


    
    
  

